<?xml version="1.0" encoding="UTF-8"?><svg id="Capa_1" xmlns="http://www.w3.org/2000/svg" viewBox="0 0 226.72 170.07"><defs><style>.cls-1{fill:#edece5;}</style></defs><path class="cls-1" d="M167.36,52.48c-19.88,0-36,16.12-36,36h36v18h36V52.48h-36Z"/><path class="cls-1" d="M23.36,88.48v36H59.36c19.88,0,36-16.12,36-36H23.36Z"/><path class="cls-1" d="M167.36,142.48c19.88,0,36-16.12,36-36h-36v36Z"/><path class="cls-1" d="M95.36,52.48c19.88,0,36-16.12,36-36h-36c-19.88,0-36,16.12-36,36s16.12,36,36,36h36c0-19.88-16.12-36-36-36Z"/></svg>